<svg xmlns="http://www.w3.org/2000/svg" viewBox="0 0 427.85 122.35"><defs><style>.cls-1{fill:#1d1d1b;}.cls-2{fill:#e50046;}</style></defs><g id="Livello_2" data-name="Livello 2"><g id="Livello_1-2" data-name="Livello 1"><path class="cls-1" d="M264.43,85.82V57.35c0-13.18-8.86-23.9-19.74-23.9S225,44.17,225,57.35V85.82h7V57.35c0-9.16,5.83-16.9,12.74-16.9s12.74,7.74,12.74,16.9V85.82Z"/><path class="cls-1" d="M304.9,85.82V57.35c0-13.18-8.85-23.9-19.73-23.9s-19.74,10.72-19.74,23.9V85.82h7V57.35c0-9.16,5.83-16.9,12.74-16.9s12.73,7.74,12.73,16.9V85.82Z"/><path class="cls-1" d="M285.17,25.45c-8,0-15.18,3.89-20.24,10.11-5.07-6.22-12.27-10.11-20.24-10.11-15.3,0-27.74,14.31-27.74,31.9V85.82h7V57.35c0-13.73,9.3-24.9,20.74-24.9,9.88,0,18.16,8.33,20.24,19.45,2.07-11.12,10.36-19.45,20.24-19.45,11.43,0,20.73,11.17,20.73,24.9V85.82h7V57.35C312.9,39.76,300.46,25.45,285.17,25.45Z"/><circle class="cls-2" cx="197.15" cy="62.53" r="7.05"/><path class="cls-1" d="M31.9,44a16.9,16.9,0,1,1-8.37,31.58l-3.48,6.08A25.52,25.52,0,0,0,31.9,84.75,23.9,23.9,0,1,0,8,60.86v61.49h7V60.86A16.92,16.92,0,0,1,31.9,44Z"/><path class="cls-1" d="M31.9,29A31.94,31.94,0,0,0,0,60.86v61.49H7V60.86A24.9,24.9,0,1,1,31.9,85.75a26.39,26.39,0,0,1-12.34-3.26l-3.47,6.07A31.9,31.9,0,1,0,31.9,29Z"/><path class="cls-1" d="M144.36,78.29a16.9,16.9,0,1,1,10.3-31.48l3.47-6.08a25.45,25.45,0,0,0-11.84-3.13,23.9,23.9,0,1,0,23.9,23.9V0h-7V61.5A16.92,16.92,0,0,1,144.36,78.29Z"/><path class="cls-1" d="M148.35,93.33c16.44-1,29.84-16,29.84-32.42V0h-7V61c0,12.71-10.32,24.39-23,25.34a24.9,24.9,0,1,1-1.91-49.72,26.42,26.42,0,0,1,12.34,3.26l3.47-6.07a31.9,31.9,0,1,0-13.75,59.54Z"/><path class="cls-1" d="M394,78.29a16.9,16.9,0,1,1,10.3-31.48l3.47-6.08A25.45,25.45,0,0,0,396,37.6a23.9,23.9,0,1,0,23.9,23.9V0h-7V61.5A16.92,16.92,0,0,1,394,78.29Z"/><path class="cls-1" d="M398,93.33c16.44-1,29.84-16,29.84-32.42V0h-7V61c0,12.71-10.32,24.39-23,25.34A24.9,24.9,0,1,1,396,36.6a26.42,26.42,0,0,1,12.34,3.26l3.47-6.07A31.9,31.9,0,1,0,398,93.33Z"/><path class="cls-1" d="M83.5,25.2A44.38,44.38,0,0,0,58,30.62l3.4,6.12a37.73,37.73,0,0,1,21.5-4.56,30.18,30.18,0,0,1,27.44,32.69A24.28,24.28,0,0,1,86.19,87q-1.05,0-2.13-.09A19.51,19.51,0,0,1,66.34,65.79a15.81,15.81,0,0,1,17-14.26l.61-7A22.71,22.71,0,0,0,59.37,65.18a26.52,26.52,0,0,0,24.08,28.7c.92.08,1.84.13,2.75.13a31.3,31.3,0,0,0,31.1-28.53A37.23,37.23,0,0,0,83.5,25.2Z"/><path class="cls-1" d="M82.65,59.49l.61-7A14.82,14.82,0,0,0,67.34,65.88a18.52,18.52,0,0,0,16.81,20,23.28,23.28,0,0,0,25.18-21.14A29.18,29.18,0,0,0,82.81,33.17a36.89,36.89,0,0,0-20.94,4.44l3.41,6.12A29.33,29.33,0,0,1,82.2,40.15a22.18,22.18,0,0,1,20.16,24,16.25,16.25,0,0,1-17.6,14.77A11.51,11.51,0,0,1,74.31,66.49,7.72,7.72,0,0,1,82.65,59.49Z"/><path class="cls-1" d="M343.11,93.83a44.3,44.3,0,0,0,25.51-5.42l-3.39-6.11a37.94,37.94,0,0,1-21.51,4.56,30.16,30.16,0,0,1-27.43-32.69A24.27,24.27,0,0,1,340.42,32q1.06,0,2.13.09a19.52,19.52,0,0,1,17.72,21.13,15.81,15.81,0,0,1-17,14.26l-.61,7a22.73,22.73,0,0,0,24.59-20.63,26.53,26.53,0,0,0-24.09-28.71c-.92-.08-1.84-.12-2.74-.12a31.3,31.3,0,0,0-31.11,28.53A37.22,37.22,0,0,0,343.11,93.83Z"/><path class="cls-1" d="M344,59.55l-.61,7a14.81,14.81,0,0,0,15.93-13.35,18.52,18.52,0,0,0-16.82-20,23.28,23.28,0,0,0-25.18,21.13,29.18,29.18,0,0,0,26.53,31.61,36.87,36.87,0,0,0,20.93-4.43l-3.4-6.13a29.37,29.37,0,0,1-16.92,3.59,22.17,22.17,0,0,1-20.16-24,16.26,16.26,0,0,1,17.59-14.77A11.51,11.51,0,0,1,352.3,52.55,7.73,7.73,0,0,1,344,59.55Z"/></g></g></svg>